<svg width="394" height="66" viewBox="0 0 394 66" fill="none" xmlns="http://www.w3.org/2000/svg">
<rect x="170.974" y="8.05493" width="220.353" height="55.1127" fill="#CE2424"/>
<path d="M44.9641 22.9549C44.9641 23.5883 44.7474 24.1549 44.3141 24.6549C43.9141 25.1549 43.2974 25.4049 42.4641 25.4049H36.4641V47.8049C36.4641 48.6383 36.1974 49.2716 35.6641 49.7049C35.1641 50.1049 34.5974 50.3049 33.9641 50.3049C33.3307 50.3049 32.7474 50.1049 32.2141 49.7049C31.7141 49.2716 31.4641 48.6383 31.4641 47.8049V25.4049H25.4641C24.6307 25.4049 23.9974 25.1549 23.5641 24.6549C23.1641 24.1549 22.9641 23.5883 22.9641 22.9549C22.9641 22.3216 23.1641 21.7549 23.5641 21.2549C23.9974 20.7216 24.6307 20.4549 25.4641 20.4549H42.4641C43.2974 20.4549 43.9141 20.7216 44.3141 21.2549C44.7474 21.7549 44.9641 22.3216 44.9641 22.9549ZM73.1543 35.0549C73.1543 35.8216 72.8876 36.4216 72.3543 36.8549C71.8543 37.2883 71.271 37.5049 70.6043 37.5049C70.1043 37.5049 69.6043 37.3549 69.1043 37.0549C68.6376 36.7549 68.3543 36.2716 68.2543 35.6049C68.1543 34.9383 67.9043 34.4049 67.5043 34.0049C67.1376 33.6049 66.5543 33.4049 65.7543 33.4049H63.1043C61.271 33.4049 60.3543 34.3216 60.3543 36.1549V45.1049H64.9043C65.7376 45.1049 66.3543 45.3549 66.7543 45.8549C67.1876 46.3549 67.4043 46.9216 67.4043 47.5549C67.4043 48.1883 67.1876 48.7716 66.7543 49.3049C66.3543 49.8049 65.7376 50.0549 64.9043 50.0549H52.9043C52.071 50.0549 51.4543 49.8049 51.0543 49.3049C50.6543 48.8049 50.4543 48.2383 50.4543 47.6049C50.4543 46.9716 50.6543 46.4049 51.0543 45.9049C51.4543 45.3716 52.071 45.1049 52.9043 45.1049H55.3543V33.4049H52.9043C52.071 33.4049 51.4376 33.1549 51.0043 32.6549C50.6043 32.1216 50.4043 31.5383 50.4043 30.9049C50.4043 30.2716 50.6043 29.7049 51.0043 29.2049C51.4376 28.6716 52.071 28.4049 52.9043 28.4049H57.3543C58.1876 28.4049 58.8543 28.7383 59.3543 29.4049C59.8876 29.0383 60.471 28.7883 61.1043 28.6549C61.771 28.4883 62.4376 28.4049 63.1043 28.4049H65.6043C67.3376 28.4049 68.871 28.8549 70.2043 29.7549C71.571 30.6216 72.4876 31.9216 72.9543 33.6549C73.0876 34.0549 73.1543 34.5216 73.1543 35.0549ZM100.695 47.6549C100.695 48.4216 100.428 49.0383 99.8945 49.5049C99.3612 49.9716 98.7612 50.2049 98.0945 50.2049C96.8945 50.2049 95.9112 49.7716 95.1445 48.9049C94.4779 49.3716 93.8112 49.6883 93.1445 49.8549C92.4779 50.0216 91.7112 50.1049 90.8445 50.1049H85.3445C84.4779 50.1049 83.5779 50.0216 82.6445 49.8549C81.7445 49.6549 80.9112 49.3216 80.1445 48.8549C79.4112 48.3549 78.7945 47.6883 78.2945 46.8549C77.8279 45.9883 77.5945 44.9049 77.5945 43.6049C77.5945 42.4383 77.7612 41.4716 78.0945 40.7049C78.4612 39.9049 78.9445 39.2716 79.5445 38.8049C80.1779 38.3383 80.9112 37.9883 81.7445 37.7549C82.5779 37.4883 83.4945 37.2883 84.4945 37.1549L91.7945 36.2549C92.3279 36.1883 92.6779 36.1049 92.8445 36.0049C93.0445 35.8716 93.2112 35.6716 93.3445 35.4049V35.0549C93.3445 34.4883 93.1112 34.0716 92.6445 33.8049C92.2112 33.5383 91.6612 33.4049 90.9945 33.4049H85.9945C85.1945 33.4049 84.5945 33.5049 84.1945 33.7049C83.8279 33.9049 83.5612 34.1216 83.3945 34.3549C82.7945 35.2216 82.0945 35.6549 81.2945 35.6549C80.6279 35.6549 80.0112 35.4216 79.4445 34.9549C78.9112 34.4883 78.6445 33.9049 78.6445 33.2049C78.6445 32.7716 78.7779 32.3216 79.0445 31.8549C79.8112 30.4883 80.7945 29.5716 81.9945 29.1049C83.2279 28.6383 84.4779 28.4049 85.7445 28.4049H90.9945C92.0945 28.4049 93.1112 28.5883 94.0445 28.9549C95.0112 29.3216 95.8279 29.8549 96.4945 30.5549C97.1612 31.2216 97.6779 32.0383 98.0445 33.0049C98.4445 33.9383 98.6445 34.9883 98.6445 36.1549V43.1049C98.6445 43.5383 98.6612 43.8716 98.6945 44.1049C98.7279 44.3383 98.7945 44.5549 98.8945 44.7549C98.9945 44.9216 99.1279 45.0883 99.2945 45.2549C99.4612 45.3883 99.6779 45.5883 99.9445 45.8549C100.211 46.1216 100.395 46.4216 100.495 46.7549C100.628 47.0549 100.695 47.3549 100.695 47.6549ZM93.4945 40.8549C93.2279 40.9549 92.9612 41.0383 92.6945 41.1049C92.4612 41.1716 92.1779 41.2216 91.8445 41.2549L84.6445 41.9549C84.2112 42.0216 83.7779 42.1383 83.3445 42.3049C82.9112 42.4383 82.6945 42.8216 82.6945 43.4549C82.6945 44.0549 82.8779 44.4549 83.2445 44.6549C83.6112 44.8549 84.1279 44.9549 84.7945 44.9549H90.7445C91.9445 44.9549 92.6945 44.7216 92.9945 44.2549C93.3279 43.7883 93.4945 43.2216 93.4945 42.5549V40.8549ZM127.635 47.5549C127.635 48.1883 127.418 48.7716 126.985 49.3049C126.585 49.8049 125.968 50.0549 125.135 50.0549H107.885C107.051 50.0549 106.418 49.8049 105.985 49.3049C105.585 48.7716 105.385 48.1883 105.385 47.5549C105.385 46.9216 105.585 46.3549 105.985 45.8549C106.418 45.3549 107.051 45.1049 107.885 45.1049H114.285V33.4049H110.535C109.701 33.4049 109.068 33.1549 108.635 32.6549C108.235 32.1216 108.035 31.5383 108.035 30.9049C108.035 30.2716 108.235 29.7049 108.635 29.2049C109.068 28.6716 109.701 28.4049 110.535 28.4049H116.285C117.118 28.4049 117.818 28.7049 118.385 29.3049C118.985 29.9049 119.285 30.6049 119.285 31.4049V45.1049H125.135C125.968 45.1049 126.585 45.3549 126.985 45.8549C127.418 46.3549 127.635 46.9216 127.635 47.5549ZM120.835 21.8049C120.835 23.0383 120.385 24.0883 119.485 24.9549C118.618 25.8216 117.568 26.2549 116.335 26.2549C115.101 26.2549 114.051 25.8216 113.185 24.9549C112.318 24.0883 111.885 23.0383 111.885 21.8049C111.885 20.5716 112.318 19.5216 113.185 18.6549C114.051 17.7549 115.101 17.3049 116.335 17.3049C117.568 17.3049 118.618 17.7549 119.485 18.6549C120.385 19.5216 120.835 20.5716 120.835 21.8049ZM155.125 47.5549C155.125 48.1883 154.908 48.7716 154.475 49.3049C154.075 49.8049 153.458 50.0549 152.625 50.0549H135.375C134.542 50.0549 133.908 49.8049 133.475 49.3049C133.075 48.7716 132.875 48.1883 132.875 47.5549C132.875 46.9216 133.075 46.3549 133.475 45.8549C133.908 45.3549 134.542 45.1049 135.375 45.1049H141.775V24.5549H138.025C137.192 24.5549 136.558 24.3049 136.125 23.8049C135.725 23.2716 135.525 22.6883 135.525 22.0549C135.525 21.4216 135.725 20.8549 136.125 20.3549C136.558 19.8216 137.192 19.5549 138.025 19.5549H143.775C144.575 19.5549 145.275 19.8549 145.875 20.4549C146.475 21.0549 146.775 21.7549 146.775 22.5549V45.1049H152.625C153.458 45.1049 154.075 45.3549 154.475 45.8549C154.908 46.3549 155.125 46.9216 155.125 47.5549ZM209.655 42.3049C209.655 43.5049 209.455 44.5883 209.055 45.5549C208.655 46.4883 208.105 47.3049 207.405 48.0049C206.739 48.6716 205.922 49.1883 204.955 49.5549C204.022 49.8883 203.005 50.0549 201.905 50.0549H191.155C190.489 50.0549 189.905 49.8049 189.405 49.3049C188.905 48.8049 188.655 48.2216 188.655 47.5549V22.9549C188.655 22.2883 188.905 21.7049 189.405 21.2049C189.905 20.7049 190.489 20.4549 191.155 20.4549H201.755C202.855 20.4549 203.872 20.6383 204.805 21.0049C205.772 21.3383 206.589 21.8549 207.255 22.5549C207.955 23.2216 208.505 24.0383 208.905 25.0049C209.305 25.9383 209.505 27.0049 209.505 28.2049V29.5549C209.505 31.6216 208.905 33.3383 207.705 34.7049C209.005 36.0716 209.655 37.8383 209.655 40.0049V42.3049ZM204.655 40.0049C204.655 38.2049 203.739 37.3049 201.905 37.3049H193.655V45.1049H201.905C203.739 45.1049 204.655 44.1716 204.655 42.3049V40.0049ZM204.505 28.2049C204.505 26.3383 203.589 25.4049 201.755 25.4049H193.655V32.3049H201.755C203.589 32.3049 204.505 31.3883 204.505 29.5549V28.2049ZM238.096 35.0549C238.096 35.8216 237.829 36.4216 237.296 36.8549C236.796 37.2883 236.212 37.5049 235.546 37.5049C235.046 37.5049 234.546 37.3549 234.046 37.0549C233.579 36.7549 233.296 36.2716 233.196 35.6049C233.096 34.9383 232.846 34.4049 232.446 34.0049C232.079 33.6049 231.496 33.4049 230.696 33.4049H228.046C226.212 33.4049 225.296 34.3216 225.296 36.1549V45.1049H229.846C230.679 45.1049 231.296 45.3549 231.696 45.8549C232.129 46.3549 232.346 46.9216 232.346 47.5549C232.346 48.1883 232.129 48.7716 231.696 49.3049C231.296 49.8049 230.679 50.0549 229.846 50.0549H217.846C217.012 50.0549 216.396 49.8049 215.996 49.3049C215.596 48.8049 215.396 48.2383 215.396 47.6049C215.396 46.9716 215.596 46.4049 215.996 45.9049C216.396 45.3716 217.012 45.1049 217.846 45.1049H220.296V33.4049H217.846C217.012 33.4049 216.379 33.1549 215.946 32.6549C215.546 32.1216 215.346 31.5383 215.346 30.9049C215.346 30.2716 215.546 29.7049 215.946 29.2049C216.379 28.6716 217.012 28.4049 217.846 28.4049H222.296C223.129 28.4049 223.796 28.7383 224.296 29.4049C224.829 29.0383 225.412 28.7883 226.046 28.6549C226.712 28.4883 227.379 28.4049 228.046 28.4049H230.546C232.279 28.4049 233.812 28.8549 235.146 29.7549C236.512 30.6216 237.429 31.9216 237.896 33.6549C238.029 34.0549 238.096 34.5216 238.096 35.0549ZM264.386 38.0049C264.386 39.1049 264.003 39.9716 263.236 40.6049C262.503 41.2383 261.719 41.5549 260.886 41.5549H248.436V42.3049C248.436 44.1383 249.353 45.0549 251.186 45.0549H256.536C257.269 45.0549 257.819 44.9716 258.186 44.8049C258.586 44.6049 258.903 44.3383 259.136 44.0049C259.403 43.6383 259.719 43.3883 260.086 43.2549C260.486 43.1216 260.869 43.0549 261.236 43.0549C261.836 43.0549 262.369 43.2716 262.836 43.7049C263.336 44.1383 263.586 44.7049 263.586 45.4049C263.586 46.0049 263.486 46.4716 263.286 46.8049C262.453 48.2049 261.503 49.1049 260.436 49.5049C259.369 49.8716 258.253 50.0549 257.086 50.0549H251.136C250.069 50.0549 249.053 49.8883 248.086 49.5549C247.153 49.1883 246.336 48.6716 245.636 48.0049C244.936 47.3383 244.386 46.5216 243.986 45.5549C243.586 44.5883 243.386 43.5049 243.386 42.3049V36.1549C243.386 34.9549 243.586 33.8716 243.986 32.9049C244.386 31.9383 244.936 31.1216 245.636 30.4549C246.336 29.7883 247.153 29.2883 248.086 28.9549C249.053 28.5883 250.069 28.4049 251.136 28.4049H257.086C258.119 28.4049 259.086 28.5716 259.986 28.9049C260.886 29.2049 261.653 29.6716 262.286 30.3049C262.953 30.9049 263.469 31.6883 263.836 32.6549C264.203 33.5883 264.386 34.6883 264.386 35.9549V38.0049ZM259.386 36.1049C259.386 34.2716 258.469 33.3549 256.636 33.3549H251.186C249.353 33.3549 248.436 34.2716 248.436 36.1049V36.6549H259.386V36.1049ZM293.126 47.6549C293.126 48.4216 292.859 49.0383 292.326 49.5049C291.793 49.9716 291.193 50.2049 290.526 50.2049C289.326 50.2049 288.343 49.7716 287.576 48.9049C286.909 49.3716 286.243 49.6883 285.576 49.8549C284.909 50.0216 284.143 50.1049 283.276 50.1049H277.776C276.909 50.1049 276.009 50.0216 275.076 49.8549C274.176 49.6549 273.343 49.3216 272.576 48.8549C271.843 48.3549 271.226 47.6883 270.726 46.8549C270.259 45.9883 270.026 44.9049 270.026 43.6049C270.026 42.4383 270.193 41.4716 270.526 40.7049C270.893 39.9049 271.376 39.2716 271.976 38.8049C272.609 38.3383 273.343 37.9883 274.176 37.7549C275.009 37.4883 275.926 37.2883 276.926 37.1549L284.226 36.2549C284.759 36.1883 285.109 36.1049 285.276 36.0049C285.476 35.8716 285.643 35.6716 285.776 35.4049V35.0549C285.776 34.4883 285.543 34.0716 285.076 33.8049C284.643 33.5383 284.093 33.4049 283.426 33.4049H278.426C277.626 33.4049 277.026 33.5049 276.626 33.7049C276.259 33.9049 275.993 34.1216 275.826 34.3549C275.226 35.2216 274.526 35.6549 273.726 35.6549C273.059 35.6549 272.443 35.4216 271.876 34.9549C271.343 34.4883 271.076 33.9049 271.076 33.2049C271.076 32.7716 271.209 32.3216 271.476 31.8549C272.243 30.4883 273.226 29.5716 274.426 29.1049C275.659 28.6383 276.909 28.4049 278.176 28.4049H283.426C284.526 28.4049 285.543 28.5883 286.476 28.9549C287.443 29.3216 288.259 29.8549 288.926 30.5549C289.593 31.2216 290.109 32.0383 290.476 33.0049C290.876 33.9383 291.076 34.9883 291.076 36.1549V43.1049C291.076 43.5383 291.093 43.8716 291.126 44.1049C291.159 44.3383 291.226 44.5549 291.326 44.7549C291.426 44.9216 291.559 45.0883 291.726 45.2549C291.893 45.3883 292.109 45.5883 292.376 45.8549C292.643 46.1216 292.826 46.4216 292.926 46.7549C293.059 47.0549 293.126 47.3549 293.126 47.6549ZM285.926 40.8549C285.659 40.9549 285.393 41.0383 285.126 41.1049C284.893 41.1716 284.609 41.2216 284.276 41.2549L277.076 41.9549C276.643 42.0216 276.209 42.1383 275.776 42.3049C275.343 42.4383 275.126 42.8216 275.126 43.4549C275.126 44.0549 275.309 44.4549 275.676 44.6549C276.043 44.8549 276.559 44.9549 277.226 44.9549H283.176C284.376 44.9549 285.126 44.7216 285.426 44.2549C285.759 43.7883 285.926 43.2216 285.926 42.5549V40.8549ZM319.716 47.7549C319.716 48.4216 319.45 49.0216 318.916 49.5549C318.383 50.0549 317.783 50.3049 317.116 50.3049C316.483 50.3049 315.9 50.0383 315.366 49.5049L307.316 41.1049L303.366 44.4049V47.7549C303.366 48.5883 303.1 49.2216 302.566 49.6549C302.066 50.0549 301.5 50.2549 300.866 50.2549C300.233 50.2549 299.65 50.0549 299.116 49.6549C298.616 49.2216 298.366 48.5883 298.366 47.7549V20.6049C298.366 19.7716 298.616 19.1549 299.116 18.7549C299.65 18.3549 300.233 18.1549 300.866 18.1549C301.5 18.1549 302.066 18.3549 302.566 18.7549C303.1 19.1549 303.366 19.7716 303.366 20.6049V38.0549C305.166 36.4883 306.983 34.9549 308.816 33.4549C310.65 31.9549 312.516 30.4049 314.416 28.8049C314.916 28.4049 315.433 28.2049 315.966 28.2049C316.633 28.2049 317.216 28.4716 317.716 29.0049C318.25 29.5383 318.516 30.1383 318.516 30.8049C318.516 31.5383 318.183 32.1716 317.516 32.7049L311.216 38.0049L318.966 46.0549C319.466 46.6216 319.716 47.1883 319.716 47.7549ZM346.857 38.0049C346.857 39.1049 346.473 39.9716 345.707 40.6049C344.973 41.2383 344.19 41.5549 343.357 41.5549H330.907V42.3049C330.907 44.1383 331.823 45.0549 333.657 45.0549H339.007C339.74 45.0549 340.29 44.9716 340.657 44.8049C341.057 44.6049 341.373 44.3383 341.607 44.0049C341.873 43.6383 342.19 43.3883 342.557 43.2549C342.957 43.1216 343.34 43.0549 343.707 43.0549C344.307 43.0549 344.84 43.2716 345.307 43.7049C345.807 44.1383 346.057 44.7049 346.057 45.4049C346.057 46.0049 345.957 46.4716 345.757 46.8049C344.923 48.2049 343.973 49.1049 342.907 49.5049C341.84 49.8716 340.723 50.0549 339.557 50.0549H333.607C332.54 50.0549 331.523 49.8883 330.557 49.5549C329.623 49.1883 328.807 48.6716 328.107 48.0049C327.407 47.3383 326.857 46.5216 326.457 45.5549C326.057 44.5883 325.857 43.5049 325.857 42.3049V36.1549C325.857 34.9549 326.057 33.8716 326.457 32.9049C326.857 31.9383 327.407 31.1216 328.107 30.4549C328.807 29.7883 329.623 29.2883 330.557 28.9549C331.523 28.5883 332.54 28.4049 333.607 28.4049H339.557C340.59 28.4049 341.557 28.5716 342.457 28.9049C343.357 29.2049 344.123 29.6716 344.757 30.3049C345.423 30.9049 345.94 31.6883 346.307 32.6549C346.673 33.5883 346.857 34.6883 346.857 35.9549V38.0049ZM341.857 36.1049C341.857 34.2716 340.94 33.3549 339.107 33.3549H333.657C331.823 33.3549 330.907 34.2716 330.907 36.1049V36.6549H341.857V36.1049ZM375.547 35.0549C375.547 35.8216 375.28 36.4216 374.747 36.8549C374.247 37.2883 373.664 37.5049 372.997 37.5049C372.497 37.5049 371.997 37.3549 371.497 37.0549C371.03 36.7549 370.747 36.2716 370.647 35.6049C370.547 34.9383 370.297 34.4049 369.897 34.0049C369.53 33.6049 368.947 33.4049 368.147 33.4049H365.497C363.664 33.4049 362.747 34.3216 362.747 36.1549V45.1049H367.297C368.13 45.1049 368.747 45.3549 369.147 45.8549C369.58 46.3549 369.797 46.9216 369.797 47.5549C369.797 48.1883 369.58 48.7716 369.147 49.3049C368.747 49.8049 368.13 50.0549 367.297 50.0549H355.297C354.464 50.0549 353.847 49.8049 353.447 49.3049C353.047 48.8049 352.847 48.2383 352.847 47.6049C352.847 46.9716 353.047 46.4049 353.447 45.9049C353.847 45.3716 354.464 45.1049 355.297 45.1049H357.747V33.4049H355.297C354.464 33.4049 353.83 33.1549 353.397 32.6549C352.997 32.1216 352.797 31.5383 352.797 30.9049C352.797 30.2716 352.997 29.7049 353.397 29.2049C353.83 28.6716 354.464 28.4049 355.297 28.4049H359.747C360.58 28.4049 361.247 28.7383 361.747 29.4049C362.28 29.0383 362.864 28.7883 363.497 28.6549C364.164 28.4883 364.83 28.4049 365.497 28.4049H367.997C369.73 28.4049 371.264 28.8549 372.597 29.7549C373.964 30.6216 374.88 31.9216 375.347 33.6549C375.48 34.0549 375.547 34.5216 375.547 35.0549Z" fill="white"/>
<path d="M28.8986 2.56775H2.67322V28.7931" stroke="white" stroke-width="4"/>
<path d="M365.101 63.1676L391.327 63.1676L391.327 36.9422" stroke="white" stroke-width="4"/>
</svg>
